<svg xmlns="http://www.w3.org/2000/svg" xmlns:svg="http://www.w3.org/2000/svg" xmlns:xlink="http://www.w3.org/1999/xlink" id="svg8" width="128" height="128" version="1.1" viewBox="0 0 33.867 33.867"><defs id="defs2"><linearGradient id="linearGradient9493"><stop id="stop9489" offset="0" style="stop-color:#cca300;stop-opacity:1"/><stop style="stop-color:#ffd736;stop-opacity:1" id="stop9495" offset=".65"/><stop id="stop9491" offset="1" style="stop-color:#cba200;stop-opacity:1"/></linearGradient><filter id="filter9032" style="color-interpolation-filters:sRGB"><feColorMatrix id="feColorMatrix9022" in="SourceGraphic" result="colormatrix" values="1 0 0 0 0 0 1 0 0 0 0 0 1 0 0 -0.2125 -0.7154 -0.0721 1 0"/><feComposite id="feComposite9024" in="SourceGraphic" in2="colormatrix" k2="1" k3=".1" k4=".01" operator="arithmetic" result="composite"/><feGaussianBlur id="feGaussianBlur9026" result="blur1" stdDeviation="0.2 0.01"/><feGaussianBlur id="feGaussianBlur9028" in="composite" result="blur2" stdDeviation="0.01 0.2"/><feBlend id="feBlend9030" in="blur2" in2="blur1" mode="lighten" result="blend"/></filter><filter id="filter9044" style="color-interpolation-filters:sRGB"><feColorMatrix id="feColorMatrix9034" in="SourceGraphic" result="colormatrix" values="1 0 0 0 0 0 1 0 0 0 0 0 1 0 0 -0.2125 -0.7154 -0.0721 1 0"/><feComposite id="feComposite9036" in="SourceGraphic" in2="colormatrix" k2="1" k3=".1" k4=".01" operator="arithmetic" result="composite"/><feGaussianBlur id="feGaussianBlur9038" result="blur1" stdDeviation="0.2 0.01"/><feGaussianBlur id="feGaussianBlur9040" in="composite" result="blur2" stdDeviation="0.01 0.2"/><feBlend id="feBlend9042" in="blur2" in2="blur1" mode="lighten" result="blend"/></filter><filter id="filter9056" style="color-interpolation-filters:sRGB"><feColorMatrix id="feColorMatrix9046" in="SourceGraphic" result="colormatrix" values="1 0 0 0 0 0 1 0 0 0 0 0 1 0 0 -0.2125 -0.7154 -0.0721 1 0"/><feComposite id="feComposite9048" in="SourceGraphic" in2="colormatrix" k2="1" k3=".1" k4=".01" operator="arithmetic" result="composite"/><feGaussianBlur id="feGaussianBlur9050" result="blur1" stdDeviation="0.2 0.01"/><feGaussianBlur id="feGaussianBlur9052" in="composite" result="blur2" stdDeviation="0.01 0.2"/><feBlend id="feBlend9054" in="blur2" in2="blur1" mode="lighten" result="blend"/></filter><filter id="filter9068" style="color-interpolation-filters:sRGB"><feColorMatrix id="feColorMatrix9058" in="SourceGraphic" result="colormatrix" values="1 0 0 0 0 0 1 0 0 0 0 0 1 0 0 -0.2125 -0.7154 -0.0721 1 0"/><feComposite id="feComposite9060" in="SourceGraphic" in2="colormatrix" k2="1" k3=".1" k4=".01" operator="arithmetic" result="composite"/><feGaussianBlur id="feGaussianBlur9062" result="blur1" stdDeviation="0.2 0.01"/><feGaussianBlur id="feGaussianBlur9064" in="composite" result="blur2" stdDeviation="0.01 0.2"/><feBlend id="feBlend9066" in="blur2" in2="blur1" mode="lighten" result="blend"/></filter><filter id="filter9080" style="color-interpolation-filters:sRGB"><feColorMatrix id="feColorMatrix9070" in="SourceGraphic" result="colormatrix" values="1 0 0 0 0 0 1 0 0 0 0 0 1 0 0 -0.2125 -0.7154 -0.0721 1 0"/><feComposite id="feComposite9072" in="SourceGraphic" in2="colormatrix" k2="1" k3=".1" k4=".01" operator="arithmetic" result="composite"/><feGaussianBlur id="feGaussianBlur9074" result="blur1" stdDeviation="0.2 0.01"/><feGaussianBlur id="feGaussianBlur9076" in="composite" result="blur2" stdDeviation="0.01 0.2"/><feBlend id="feBlend9078" in="blur2" in2="blur1" mode="lighten" result="blend"/></filter><filter id="filter9092" style="color-interpolation-filters:sRGB"><feColorMatrix id="feColorMatrix9082" in="SourceGraphic" result="colormatrix" values="1 0 0 0 0 0 1 0 0 0 0 0 1 0 0 -0.2125 -0.7154 -0.0721 1 0"/><feComposite id="feComposite9084" in="SourceGraphic" in2="colormatrix" k2="1" k3=".1" k4=".01" operator="arithmetic" result="composite"/><feGaussianBlur id="feGaussianBlur9086" result="blur1" stdDeviation="0.2 0.01"/><feGaussianBlur id="feGaussianBlur9088" in="composite" result="blur2" stdDeviation="0.01 0.2"/><feBlend id="feBlend9090" in="blur2" in2="blur1" mode="lighten" result="blend"/></filter><filter id="filter9104" style="color-interpolation-filters:sRGB"><feColorMatrix id="feColorMatrix9094" in="SourceGraphic" result="colormatrix" values="1 0 0 0 0 0 1 0 0 0 0 0 1 0 0 -0.2125 -0.7154 -0.0721 1 0"/><feComposite id="feComposite9096" in="SourceGraphic" in2="colormatrix" k2="1" k3=".1" k4=".01" operator="arithmetic" result="composite"/><feGaussianBlur id="feGaussianBlur9098" result="blur1" stdDeviation="0.2 0.01"/><feGaussianBlur id="feGaussianBlur9100" in="composite" result="blur2" stdDeviation="0.01 0.2"/><feBlend id="feBlend9102" in="blur2" in2="blur1" mode="lighten" result="blend"/></filter><filter id="filter9116" style="color-interpolation-filters:sRGB"><feColorMatrix id="feColorMatrix9106" in="SourceGraphic" result="colormatrix" values="1 0 0 0 0 0 1 0 0 0 0 0 1 0 0 -0.2125 -0.7154 -0.0721 1 0"/><feComposite id="feComposite9108" in="SourceGraphic" in2="colormatrix" k2="1" k3=".1" k4=".01" operator="arithmetic" result="composite"/><feGaussianBlur id="feGaussianBlur9110" result="blur1" stdDeviation="0.2 0.01"/><feGaussianBlur id="feGaussianBlur9112" in="composite" result="blur2" stdDeviation="0.01 0.2"/><feBlend id="feBlend9114" in="blur2" in2="blur1" mode="lighten" result="blend"/></filter><filter id="filter9128" style="color-interpolation-filters:sRGB"><feColorMatrix id="feColorMatrix9118" in="SourceGraphic" result="colormatrix" values="1 0 0 0 0 0 1 0 0 0 0 0 1 0 0 -0.2125 -0.7154 -0.0721 1 0"/><feComposite id="feComposite9120" in="SourceGraphic" in2="colormatrix" k2="1" k3=".1" k4=".01" operator="arithmetic" result="composite"/><feGaussianBlur id="feGaussianBlur9122" result="blur1" stdDeviation="0.2 0.01"/><feGaussianBlur id="feGaussianBlur9124" in="composite" result="blur2" stdDeviation="0.01 0.2"/><feBlend id="feBlend9126" in="blur2" in2="blur1" mode="lighten" result="blend"/></filter><filter id="filter9140" style="color-interpolation-filters:sRGB"><feColorMatrix id="feColorMatrix9130" in="SourceGraphic" result="colormatrix" values="1 0 0 0 0 0 1 0 0 0 0 0 1 0 0 -0.2125 -0.7154 -0.0721 1 0"/><feComposite id="feComposite9132" in="SourceGraphic" in2="colormatrix" k2="1" k3=".1" k4=".01" operator="arithmetic" result="composite"/><feGaussianBlur id="feGaussianBlur9134" result="blur1" stdDeviation="0.2 0.01"/><feGaussianBlur id="feGaussianBlur9136" in="composite" result="blur2" stdDeviation="0.01 0.2"/><feBlend id="feBlend9138" in="blur2" in2="blur1" mode="lighten" result="blend"/></filter><filter id="filter9152" style="color-interpolation-filters:sRGB"><feColorMatrix id="feColorMatrix9142" in="SourceGraphic" result="colormatrix" values="1 0 0 0 0 0 1 0 0 0 0 0 1 0 0 -0.2125 -0.7154 -0.0721 1 0"/><feComposite id="feComposite9144" in="SourceGraphic" in2="colormatrix" k2="1" k3=".1" k4=".01" operator="arithmetic" result="composite"/><feGaussianBlur id="feGaussianBlur9146" result="blur1" stdDeviation="0.2 0.01"/><feGaussianBlur id="feGaussianBlur9148" in="composite" result="blur2" stdDeviation="0.01 0.2"/><feBlend id="feBlend9150" in="blur2" in2="blur1" mode="lighten" result="blend"/></filter><filter id="filter9164" style="color-interpolation-filters:sRGB"><feColorMatrix id="feColorMatrix9154" in="SourceGraphic" result="colormatrix" values="1 0 0 0 0 0 1 0 0 0 0 0 1 0 0 -0.2125 -0.7154 -0.0721 1 0"/><feComposite id="feComposite9156" in="SourceGraphic" in2="colormatrix" k2="1" k3=".1" k4=".01" operator="arithmetic" result="composite"/><feGaussianBlur id="feGaussianBlur9158" result="blur1" stdDeviation="0.2 0.01"/><feGaussianBlur id="feGaussianBlur9160" in="composite" result="blur2" stdDeviation="0.01 0.2"/><feBlend id="feBlend9162" in="blur2" in2="blur1" mode="lighten" result="blend"/></filter><filter id="filter9176" style="color-interpolation-filters:sRGB"><feColorMatrix id="feColorMatrix9166" in="SourceGraphic" result="colormatrix" values="1 0 0 0 0 0 1 0 0 0 0 0 1 0 0 -0.2125 -0.7154 -0.0721 1 0"/><feComposite id="feComposite9168" in="SourceGraphic" in2="colormatrix" k2="1" k3=".1" k4=".01" operator="arithmetic" result="composite"/><feGaussianBlur id="feGaussianBlur9170" result="blur1" stdDeviation="0.2 0.01"/><feGaussianBlur id="feGaussianBlur9172" in="composite" result="blur2" stdDeviation="0.01 0.2"/><feBlend id="feBlend9174" in="blur2" in2="blur1" mode="lighten" result="blend"/></filter><filter id="filter9188" style="color-interpolation-filters:sRGB"><feColorMatrix id="feColorMatrix9178" in="SourceGraphic" result="colormatrix" values="1 0 0 0 0 0 1 0 0 0 0 0 1 0 0 -0.2125 -0.7154 -0.0721 1 0"/><feComposite id="feComposite9180" in="SourceGraphic" in2="colormatrix" k2="1" k3=".1" k4=".01" operator="arithmetic" result="composite"/><feGaussianBlur id="feGaussianBlur9182" result="blur1" stdDeviation="0.2 0.01"/><feGaussianBlur id="feGaussianBlur9184" in="composite" result="blur2" stdDeviation="0.01 0.2"/><feBlend id="feBlend9186" in="blur2" in2="blur1" mode="lighten" result="blend"/></filter><filter id="filter9200" style="color-interpolation-filters:sRGB"><feColorMatrix id="feColorMatrix9190" in="SourceGraphic" result="colormatrix" values="1 0 0 0 0 0 1 0 0 0 0 0 1 0 0 -0.2125 -0.7154 -0.0721 1 0"/><feComposite id="feComposite9192" in="SourceGraphic" in2="colormatrix" k2="1" k3=".1" k4=".01" operator="arithmetic" result="composite"/><feGaussianBlur id="feGaussianBlur9194" result="blur1" stdDeviation="0.2 0.01"/><feGaussianBlur id="feGaussianBlur9196" in="composite" result="blur2" stdDeviation="0.01 0.2"/><feBlend id="feBlend9198" in="blur2" in2="blur1" mode="lighten" result="blend"/></filter><filter id="filter9212" style="color-interpolation-filters:sRGB"><feColorMatrix id="feColorMatrix9202" in="SourceGraphic" result="colormatrix" values="1 0 0 0 0 0 1 0 0 0 0 0 1 0 0 -0.2125 -0.7154 -0.0721 1 0"/><feComposite id="feComposite9204" in="SourceGraphic" in2="colormatrix" k2="1" k3=".1" k4=".01" operator="arithmetic" result="composite"/><feGaussianBlur id="feGaussianBlur9206" result="blur1" stdDeviation="0.2 0.01"/><feGaussianBlur id="feGaussianBlur9208" in="composite" result="blur2" stdDeviation="0.01 0.2"/><feBlend id="feBlend9210" in="blur2" in2="blur1" mode="lighten" result="blend"/></filter><filter id="filter9224" style="color-interpolation-filters:sRGB"><feColorMatrix id="feColorMatrix9214" in="SourceGraphic" result="colormatrix" values="1 0 0 0 0 0 1 0 0 0 0 0 1 0 0 -0.2125 -0.7154 -0.0721 1 0"/><feComposite id="feComposite9216" in="SourceGraphic" in2="colormatrix" k2="1" k3=".1" k4=".01" operator="arithmetic" result="composite"/><feGaussianBlur id="feGaussianBlur9218" result="blur1" stdDeviation="0.2 0.01"/><feGaussianBlur id="feGaussianBlur9220" in="composite" result="blur2" stdDeviation="0.01 0.2"/><feBlend id="feBlend9222" in="blur2" in2="blur1" mode="lighten" result="blend"/></filter><filter id="filter9236" style="color-interpolation-filters:sRGB"><feColorMatrix id="feColorMatrix9226" in="SourceGraphic" result="colormatrix" values="1 0 0 0 0 0 1 0 0 0 0 0 1 0 0 -0.2125 -0.7154 -0.0721 1 0"/><feComposite id="feComposite9228" in="SourceGraphic" in2="colormatrix" k2="1" k3=".1" k4=".01" operator="arithmetic" result="composite"/><feGaussianBlur id="feGaussianBlur9230" result="blur1" stdDeviation="0.2 0.01"/><feGaussianBlur id="feGaussianBlur9232" in="composite" result="blur2" stdDeviation="0.01 0.2"/><feBlend id="feBlend9234" in="blur2" in2="blur1" mode="lighten" result="blend"/></filter><filter id="filter9248" style="color-interpolation-filters:sRGB"><feColorMatrix id="feColorMatrix9238" in="SourceGraphic" result="colormatrix" values="1 0 0 0 0 0 1 0 0 0 0 0 1 0 0 -0.2125 -0.7154 -0.0721 1 0"/><feComposite id="feComposite9240" in="SourceGraphic" in2="colormatrix" k2="1" k3=".1" k4=".01" operator="arithmetic" result="composite"/><feGaussianBlur id="feGaussianBlur9242" result="blur1" stdDeviation="0.2 0.01"/><feGaussianBlur id="feGaussianBlur9244" in="composite" result="blur2" stdDeviation="0.01 0.2"/><feBlend id="feBlend9246" in="blur2" in2="blur1" mode="lighten" result="blend"/></filter><filter id="filter9445" style="color-interpolation-filters:sRGB"><feTurbulence id="feTurbulence9423" baseFrequency="0.12 0.02" numOctaves="10" seed="10" type="fractalNoise"/><feColorMatrix id="feColorMatrix9425" result="result5" values="1 0 0 0 0 0 1 0 0 0 0 0 1 0 0 0 0 0 0.7 0"/><feComposite id="feComposite9427" in="SourceGraphic" in2="result5" operator="out"/><feMorphology id="feMorphology9429" operator="dilate" radius="1.3" result="result3"/><feTurbulence id="feTurbulence9431" baseFrequency="0.08 0.05" numOctaves="8" result="result91" seed="25" type="turbulence"/><feDisplacementMap id="feDisplacementMap9433" in="result3" in2="result91" result="result4" scale="5" xChannelSelector="R" yChannelSelector="G"/><feSpecularLighting id="feSpecularLighting9437" in="result4" lighting-color="#FFF" result="result1" specularConstant="1" specularExponent="35" surfaceScale="2"><feDistantLight id="feDistantLight9435" azimuth="235" elevation="75"/></feSpecularLighting><feComposite id="feComposite9439" in="result1" in2="result4" operator="in" result="result2"/><feComposite id="feComposite9441" in="result4" in2="result2" k2="1" k3="1" operator="arithmetic" result="result4"/><feBlend id="feBlend9443" in2="result4" mode="multiply"/></filter><linearGradient id="linearGradient9487" x1="7.55" x2="26.259" y1="26.627" y2="11.225" gradientUnits="userSpaceOnUse" xlink:href="#linearGradient9493"/></defs><metadata id="metadata5"/><g id="layer1"><rect style="fill:#a80;fill-opacity:1;stroke:none;stroke-width:1.1903;stroke-miterlimit:4;stroke-dasharray:none;stroke-opacity:0;stop-color:#000" id="rect832-6" width="6.35" height="2.117" x="2.117" y="-17.992" transform="rotate(90)"/><path style="color:#000;font-style:normal;font-variant:normal;font-weight:400;font-stretch:normal;font-size:medium;line-height:normal;font-family:sans-serif;font-variant-ligatures:normal;font-variant-position:normal;font-variant-caps:normal;font-variant-numeric:normal;font-variant-alternates:normal;font-variant-east-asian:normal;font-feature-settings:normal;font-variation-settings:normal;text-indent:0;text-align:start;text-decoration:none;text-decoration-line:none;text-decoration-style:solid;text-decoration-color:#000;letter-spacing:normal;word-spacing:normal;text-transform:none;writing-mode:lr-tb;direction:ltr;text-orientation:mixed;dominant-baseline:auto;baseline-shift:baseline;text-anchor:start;white-space:normal;shape-padding:0;shape-margin:0;inline-size:0;clip-rule:nonzero;display:inline;overflow:visible;visibility:visible;isolation:auto;mix-blend-mode:normal;color-interpolation:sRGB;color-interpolation-filters:linearRGB;solid-color:#000;solid-opacity:1;vector-effect:none;fill:url(#linearGradient9487);fill-opacity:1;fill-rule:nonzero;stroke:none;stroke-width:1.05833;stroke-linecap:butt;stroke-linejoin:miter;stroke-miterlimit:4;stroke-dasharray:none;stroke-dashoffset:0;stroke-opacity:1;color-rendering:auto;image-rendering:auto;shape-rendering:auto;text-rendering:auto;enable-background:accumulate;stop-color:#000" id="path9457" d="m 29.104166,19.049999 c 0,6.721766 -5.449068,12.170834 -12.170834,12.170834 -6.721766,0 -12.1708331,-5.449068 -12.1708331,-12.170834 3e-7,-6.721765 5.4490681,-12.1708329 12.1708331,-12.1708334 6.721766,0 12.170834,5.4490674 12.170834,12.1708334"/><path style="color:#000;font-style:normal;font-variant:normal;font-weight:400;font-stretch:normal;font-size:medium;line-height:normal;font-family:sans-serif;font-variant-ligatures:normal;font-variant-position:normal;font-variant-caps:normal;font-variant-numeric:normal;font-variant-alternates:normal;font-variant-east-asian:normal;font-feature-settings:normal;font-variation-settings:normal;text-indent:0;text-align:start;text-decoration:none;text-decoration-line:none;text-decoration-style:solid;text-decoration-color:#000;letter-spacing:normal;word-spacing:normal;text-transform:none;writing-mode:lr-tb;direction:ltr;text-orientation:mixed;dominant-baseline:auto;baseline-shift:baseline;text-anchor:start;white-space:normal;shape-padding:0;shape-margin:0;inline-size:0;clip-rule:nonzero;display:inline;overflow:visible;visibility:visible;isolation:auto;mix-blend-mode:normal;color-interpolation:sRGB;color-interpolation-filters:linearRGB;solid-color:#000;solid-opacity:1;vector-effect:none;fill:#a80;fill-opacity:1;fill-rule:nonzero;stroke:none;stroke-width:1.05833;stroke-linecap:butt;stroke-linejoin:miter;stroke-miterlimit:4;stroke-dasharray:none;stroke-dashoffset:0;stroke-opacity:1;color-rendering:auto;image-rendering:auto;shape-rendering:auto;text-rendering:auto;enable-background:accumulate;stop-color:#000" id="path9459" d="m 16.933594,6.3496094 c -7.0077477,5e-7 -12.7011718,5.6934246 -12.7011721,12.7011716 0,7.007748 5.6934242,12.699218 12.7011721,12.699219 7.007748,0 12.699218,-5.691471 12.699218,-12.699219 0,-7.007748 -5.69147,-12.7011716 -12.699218,-12.7011716 z m 0,1.0585937 c 6.435784,0 11.640624,5.2067939 11.640625,11.6425779 0,6.435784 -5.204841,11.640625 -11.640625,11.640625 -6.435784,0 -11.6425784,-5.204841 -11.6425784,-11.640625 3e-7,-6.435783 5.2067944,-11.6425774 11.6425784,-11.6425779 z"/><rect id="rect832" width="6.35" height="2.117" x="13.758" y="2.117" style="fill:#a80;fill-opacity:1;stroke:none;stroke-width:1.1903;stroke-miterlimit:4;stroke-dasharray:none;stroke-opacity:0;stop-color:#000"/><rect id="rect849" width="21.167" height="1.058" x="6.35" y="18.521" style="fill:#1a1a1a;fill-opacity:1;stroke:none;stroke-width:1.39765;stroke-miterlimit:4;stroke-dasharray:none;stroke-opacity:0;stop-color:#000"/><rect id="rect851" width="5.292" height="2.117" x="6.35" y="17.992" style="fill:#1a1a1a;fill-opacity:1;stroke:none;stroke-width:1.03316;stroke-miterlimit:4;stroke-dasharray:none;stroke-opacity:0;stop-color:#000"/><rect style="fill:#1a1a1a;fill-opacity:1;stroke:none;stroke-width:1.03316;stroke-miterlimit:4;stroke-dasharray:none;stroke-opacity:0;stop-color:#000;filter:url(#filter9236)" id="rect851-4" width="5.292" height="2.117" x="22.225" y="17.992"/><path id="path870" d="M 6.8035714,18.308222 C 6.798756,17.7971 7.4628313,17.459974 7.7721353,17.15067 c 0.2724846,-0.272485 0.5575684,-0.444485 0.892699,-0.527332 0.7544551,-0.186508 1.1824548,0.530233 1.8476287,0.574578 0.343012,0.02287 1.010049,-0.64596 1.559151,-0.47247 0.325643,0.102888 1.645781,1.989663 0.823712,2.018276" style="fill:none;stroke:#b76ad7;stroke-width:.264583;stroke-linecap:butt;stroke-linejoin:miter;stroke-miterlimit:4;stroke-dasharray:none;stroke-opacity:1;filter:url(#filter9032)"/><path id="path874" d="m 6.3499999,20.108333 c 0.7434945,0.01027 -0.052621,0.831892 0.7711156,1.060707 0.9439553,0.26221 2.204975,-0.178711 3.1787355,-0.758326 0.449904,-0.267798 1.198949,0.349443 1.626953,0.377976 0.896115,0.05974 1.692365,-0.816941 1.751209,-1.34654" style="fill:none;stroke:#b76ad7;stroke-width:.264583;stroke-linecap:butt;stroke-linejoin:miter;stroke-miterlimit:4;stroke-dasharray:none;stroke-opacity:1;filter:url(#filter9044)"/><path id="path876" d="m 8.2558238,19.899349 c -0.7270975,0.874659 0.097249,1.264594 0.4176856,1.094296 0.086336,-0.04589 0.36424,-0.397099 0.6701074,-0.45324 0.8763342,-0.160848 2.2832542,-0.06703 2.4208922,-0.342303 0.150635,-0.30127 0.543341,-0.54677 0.543341,-0.87407" style="fill:none;stroke:#b76ad7;stroke-width:.264583;stroke-linecap:butt;stroke-linejoin:miter;stroke-miterlimit:4;stroke-dasharray:none;stroke-opacity:1;filter:url(#filter9056)"/><path id="path878" d="M 11.055803,18.213728 C 12.956677,17.903525 9.9630179,17.509684 8.8351933,16.938058 7.7044041,16.36493 6.953927,16.881595 7.6776412,17.788504 c 0.2363336,0.296157 -0.141741,0.911534 -0.141741,1.181176" style="fill:none;stroke:#b76ad7;stroke-width:.264583;stroke-linecap:butt;stroke-linejoin:miter;stroke-miterlimit:4;stroke-dasharray:none;stroke-opacity:1;filter:url(#filter9068)"/><path id="path880" d="m 12.37872,18.709821 v -0.118117 c 0.0315,-0.149616 0.06544,-0.298737 0.09449,-0.448847 0.01817,-0.09388 0.206674,-0.990158 0.198774,-1.018881 -0.112774,-0.410026 -0.931012,-0.737619 -1.173562,-0.636893 -0.396663,0.164726 -0.642044,-0.02986 -1.108871,0.07018 -0.6315204,0.135325 -0.4881404,0.335288 -0.8692798,0.758776 -1.0531999,1.170222 -1.3586835,-0.32771 -1.984375,1.653646" style="fill:none;stroke:#b76ad7;stroke-width:.264583;stroke-linecap:butt;stroke-linejoin:miter;stroke-miterlimit:4;stroke-dasharray:none;stroke-opacity:1;filter:url(#filter9080)"/><path id="path884" d="m 7.252418,19.985491 c -0.4883116,1.428247 1.066952,0.448769 1.927097,1.038942 0.2970785,0.203835 0.7183872,-0.08445 0.95403,-0.17871 0.604693,-0.241877 1.338871,0.437149 1.904414,-0.128395 0.475607,-0.475606 -0.407089,-0.940398 -0.698673,-1.08619" style="fill:none;stroke:#b76ad7;stroke-width:.264583;stroke-linecap:butt;stroke-linejoin:miter;stroke-miterlimit:4;stroke-dasharray:none;stroke-opacity:1;filter:url(#filter9092)"/><path id="path888" d="m 7.0161829,19.312221 c 0.3119755,-0.628414 1.0352545,-1.358048 1.8190104,-1.157552 0.2709812,0.06932 0.5052057,0.255712 0.7677642,0.330729 0.3046817,0.08705 0.6724325,-0.02654 0.9921875,0.04725 0.261318,0.0603 0.6006,0.116886 0.826823,0.27167 0.148325,0.101486 0.267904,0.255408 0.448847,0.307106 0.343006,0.098 0.788982,0.05906 1.14574,0.05906" style="fill:none;stroke:#b76ad7;stroke-width:.264583px;stroke-linecap:butt;stroke-linejoin:miter;stroke-opacity:1;filter:url(#filter9104)"/><path id="path890" d="m 6.9216888,19.64295 c 0.3005085,-0.160733 0.6252091,-0.292624 0.9449406,-0.413411 0.4350636,-0.164358 0.8282178,0.353887 1.2874813,0.200799 0.7391714,-0.24639 0.8983193,-1.334853 1.7245163,-1.500093 0.294611,-0.05892 1.122117,0.418453 1.122117,0.626024" style="fill:none;stroke:#b76ad7;stroke-width:.264583px;stroke-linecap:butt;stroke-linejoin:miter;stroke-opacity:1;filter:url(#filter9116)"/><path id="path892" d="m 12.000744,18.556269 c -0.03488,0.558101 0.04603,0.278879 -0.330729,0.838634 -0.09311,0.138331 -0.233144,0.399127 -0.354353,0.496094 C 10.949359,20.18404 10.311484,19.060876 9.8628162,19.253162 9.5412964,19.390956 9.4521466,19.79658 9.095052,19.926432 8.2840924,20.221327 7.4355205,19.69833 6.7799478,19.288597" style="fill:none;stroke:#b76ad7;stroke-width:.264583px;stroke-linecap:butt;stroke-linejoin:miter;stroke-opacity:1;filter:url(#filter9128)"/><path id="path894" d="m 27.273345,18.131045 c -0.335296,-1.476795 -1.444807,-1.026462 -2.220611,-0.614212 -0.523359,0.278106 -1.523548,0.43285 -1.996187,0.236236 -1.666561,-0.693278 -1.803732,0.444696 -2.185174,1.334728" style="fill:none;stroke:#b76ad7;stroke-width:.264583px;stroke-linecap:butt;stroke-linejoin:miter;stroke-opacity:1;filter:url(#filter9140)"/><path id="path896" d="m 26.84812,18.414527 c -0.262284,-0.232933 -0.57314,-0.393038 -0.838634,-0.626023 -0.117741,-0.103323 -0.556877,-0.534656 -0.732329,-0.578776 -1.330523,-0.334582 -1.17115,0.394993 -1.334728,0.67327 -0.08121,0.13815 -0.207319,0.32444 -0.354353,0.389788 -0.08896,0.03954 -0.235406,0.03475 -0.307105,0.09449 -0.314155,0.261796 -0.0683,0.904884 0.224423,1.051247" style="fill:none;stroke:#b76ad7;stroke-width:.264583px;stroke-linecap:butt;stroke-linejoin:miter;stroke-opacity:1;filter:url(#filter9152)"/><path id="path902" d="m 21.851748,18.698009 c -0.270762,-0.396086 -0.05599,-0.7061 0.07087,-1.086681 0.159841,-0.479523 0.756368,-0.80895 1.27567,-0.614211 0.27568,0.10338 1.158604,0.09922 1.41741,-0.02362 0.438435,-0.208105 0.625861,0.661296 1.015812,1.051247 0.435824,0.435824 1.254227,0.09667 1.358351,0.200799 0.111446,0.111445 0.0089,0.26433 -0.141742,0.188988" style="fill:none;stroke:#b76ad7;stroke-width:.264583px;stroke-linecap:butt;stroke-linejoin:miter;stroke-opacity:1;filter:url(#filter9164)"/><path id="path904" d="m 26.928981,18.361535 c 0.03966,0.163623 0.370466,0.416244 0.283974,0.618061 -0.128587,0.30004 0.143456,0.352639 -0.06839,0.564488 -0.08049,0.08049 -0.04783,0.167025 -0.07517,0.26727 -0.07002,0.256749 -0.587275,0.550595 -0.843569,0.526186 -0.193961,-0.01847 -0.528774,-0.108977 -0.684878,-0.23386 -0.02191,-0.01753 -0.229616,-0.355995 -0.242213,-0.359144 -0.153837,-0.03846 -0.306822,-0.01815 -0.45937,-0.08352" style="fill:none;stroke:#b76ad7;stroke-width:.264583px;stroke-linecap:butt;stroke-linejoin:miter;stroke-opacity:1;filter:url(#filter9176)"/><path id="path906" d="m 21.840932,19.377041 c -0.125694,0.448488 0.596335,0.445405 0.451017,0.826865 -0.01046,0.02745 -0.319447,0.278437 -0.309031,0.292326 0.07414,0.09886 0.351871,0.539289 0.46545,0.587964 0.510717,0.218873 0.859939,0.514795 1.981737,-0.504494 0.431147,-0.224947 0.408565,-0.949272 0.409257,-0.918686" style="fill:none;stroke:#b76ad7;stroke-width:.264583px;stroke-linecap:butt;stroke-linejoin:miter;stroke-opacity:1;filter:url(#filter9188)"/><path id="path910" d="m 27.345013,19.83641 c -0.06376,0.192807 0.173815,0.371463 0.150338,0.5763 -0.08072,0.704291 -1.243981,1.130636 -1.838765,0.359737 -0.219978,-0.285112 -0.113429,-0.574629 -0.474786,-0.652063 -0.689773,-0.147809 -0.562567,0.218642 -0.726639,0.300678 -0.320842,0.160421 -1.821596,-0.450154 -1.979464,-0.818513" style="fill:none;stroke:#b76ad7;stroke-width:.264583px;stroke-linecap:butt;stroke-linejoin:miter;stroke-opacity:1;filter:url(#filter9200)"/><path id="path912" d="m 27.087486,19.75254 c -0.199335,0.116322 -0.427066,0.176763 -0.626413,0.292327 -0.430285,0.24944 -0.593034,1.00009 -1.327257,1.00009 -0.12512,0 -0.821851,0.127686 -0.940786,0.09791 -0.359294,-0.08982 -0.459237,-0.394427 -0.779024,-0.461049 -0.290521,-0.06053 -0.430468,0.011 -0.662688,-0.04364 -0.03908,-0.0092 -1.083613,-0.959415 -1.38646,-1.110839" style="fill:none;stroke:#b76ad7;stroke-width:.264583px;stroke-linecap:butt;stroke-linejoin:miter;stroke-opacity:1;filter:url(#filter9212)"/><path id="path914" d="m 22.367118,19.14318 c 0.170588,-0.04265 0.118176,-0.01907 0.342439,-0.250566 0.21307,-0.06287 0.198587,-0.294659 0.317383,-0.42596 0.309961,-0.342589 0.689448,0.385205 1.03567,0.375848 0.253992,-0.0069 0.53388,0.0198 0.785104,-0.02506 0.663856,-0.118546 1.338654,-0.506311 1.745604,0.217156 0.128503,0.228451 0.127926,0.415464 0,0.634765" style="fill:none;stroke:#b76ad7;stroke-width:.264583px;stroke-linecap:butt;stroke-linejoin:miter;stroke-opacity:1;filter:url(#filter9224)"/><path id="path916" d="m 22.801431,19.410449 c 0.03975,0.159011 0.0127,0.125385 0.317383,0.200452 0.872913,0.215066 0.658206,-0.258943 1.219417,-0.526187 0.180399,-0.0859 0.44418,-0.130445 0.643117,-0.150338 0.441906,-0.04419 0.487924,0.44854 1.077431,0.242212 0.171779,-0.06012 1.605088,-1.272099 1.214566,-1.045543" style="fill:none;stroke:#b76ad7;stroke-width:.264583px;stroke-linecap:butt;stroke-linejoin:miter;stroke-opacity:1;filter:url(#filter9248)"/></g></svg>